<?xml version="1.0" encoding="UTF-8" standalone="no"?><svg xmlns="http://www.w3.org/2000/svg" xmlns:xlink="http://www.w3.org/1999/xlink" contentScriptType="application/ecmascript" contentStyleType="text/css" height="326px" preserveAspectRatio="none" style="width:455px;height:326px;" version="1.1" viewBox="0 0 455 326" width="455px" zoomAndPan="magnify"><defs><filter height="300%" id="f1l6qvgcz8ys0e" width="300%" x="-1" y="-1"><feGaussianBlur result="blurOut" stdDeviation="2.0"/><feColorMatrix in="blurOut" result="blurOut2" type="matrix" values="0 0 0 0 0 0 0 0 0 0 0 0 0 0 0 0 0 0 .4 0"/><feOffset dx="4.0" dy="4.0" in="blurOut2" result="blurOut3"/><feBlend in="SourceGraphic" in2="blurOut3" mode="normal"/></filter></defs><g><ellipse cx="131" cy="48.6982" fill="#000000" filter="url(#f1l6qvgcz8ys0e)" rx="10" ry="10" style="stroke: none; stroke-width: 1.0;"/><rect fill="#FEFECE" filter="url(#f1l6qvgcz8ys0e)" height="33.9688" rx="12.5" ry="12.5" style="stroke: #A80036; stroke-width: 1.5;" width="129" x="66.5" y="78.6982"/><text fill="#000000" font-family="sans-serif" font-size="12" lengthAdjust="spacingAndGlyphs" textLength="109" x="76.5" y="99.8369">Schema erstellen</text><rect fill="#FEFECE" filter="url(#f1l6qvgcz8ys0e)" height="33.9688" rx="12.5" ry="12.5" style="stroke: #A80036; stroke-width: 1.5;" width="222" x="20" y="132.667"/><text fill="#000000" font-family="sans-serif" font-size="12" lengthAdjust="spacingAndGlyphs" textLength="202" x="30" y="153.8057">Technische Metadaten erfassen</text><rect fill="#FEFECE" filter="url(#f1l6qvgcz8ys0e)" height="33.9688" rx="12.5" ry="12.5" style="stroke: #A80036; stroke-width: 1.5;" width="170" x="46" y="240.6045"/><text fill="#000000" font-family="sans-serif" font-size="12" lengthAdjust="spacingAndGlyphs" textLength="150" x="56" y="261.7432">Datenabgabe freigeben</text><ellipse cx="131" cy="304.5732" fill="#FFFFFF" filter="url(#f1l6qvgcz8ys0e)" rx="10" ry="10" style="stroke: #000000; stroke-width: 1.5;"/><line style="stroke: #000000; stroke-width: 2.5;" x1="124.8128" x2="137.1872" y1="298.3861" y2="310.7604"/><line style="stroke: #000000; stroke-width: 2.5;" x1="137.1872" x2="124.8128" y1="298.3861" y2="310.7604"/><rect fill="#FEFECE" filter="url(#f1l6qvgcz8ys0e)" height="33.9688" rx="12.5" ry="12.5" style="stroke: #A80036; stroke-width: 1.5;" width="182" x="252" y="186.6357"/><text fill="#000000" font-family="sans-serif" font-size="12" lengthAdjust="spacingAndGlyphs" textLength="162" x="262" y="207.7744">Datensatz dokumentieren</text><line style="stroke: #A80036; stroke-width: 1.5;" x1="131" x2="131" y1="58.6982" y2="78.6982"/><polygon fill="#A80036" points="127,68.6982,131,78.6982,135,68.6982,131,72.6982" style="stroke: #A80036; stroke-width: 1.0;"/><line style="stroke: #A80036; stroke-width: 1.5;" x1="131" x2="131" y1="112.667" y2="132.667"/><polygon fill="#A80036" points="127,122.667,131,132.667,135,122.667,131,126.667" style="stroke: #A80036; stroke-width: 1.0;"/><line style="stroke: #A80036; stroke-width: 1.5;" x1="131" x2="131" y1="274.5732" y2="294.5732"/><polygon fill="#A80036" points="127,284.5732,131,294.5732,135,284.5732,131,288.5732" style="stroke: #A80036; stroke-width: 1.0;"/><line style="stroke: #A80036; stroke-width: 1.5;" x1="131" x2="131" y1="166.6357" y2="171.6357"/><line style="stroke: #A80036; stroke-width: 1.5;" x1="131" x2="343" y1="171.6357" y2="171.6357"/><line style="stroke: #A80036; stroke-width: 1.5;" x1="343" x2="343" y1="171.6357" y2="186.6357"/><polygon fill="#A80036" points="339,176.6357,343,186.6357,347,176.6357,343,180.6357" style="stroke: #A80036; stroke-width: 1.0;"/><line style="stroke: #A80036; stroke-width: 1.5;" x1="343" x2="343" y1="220.6045" y2="225.6045"/><line style="stroke: #A80036; stroke-width: 1.5;" x1="343" x2="131" y1="225.6045" y2="225.6045"/><line style="stroke: #A80036; stroke-width: 1.5;" x1="131" x2="131" y1="225.6045" y2="240.6045"/><polygon fill="#A80036" points="127,230.6045,131,240.6045,135,230.6045,131,234.6045" style="stroke: #A80036; stroke-width: 1.0;"/><text fill="#000000" font-family="sans-serif" font-size="18" lengthAdjust="spacingAndGlyphs" textLength="32" x="114.5" y="29.4531">AGI</text><text fill="#000000" font-family="sans-serif" font-size="18" lengthAdjust="spacingAndGlyphs" textLength="74" x="305.5" y="29.4531">Fachamt</text><line style="stroke: #000000; stroke-width: 2.0;" x1="10" x2="10" y1="12.7451" y2="314.5732"/><line style="stroke: #000000; stroke-width: 2.0;" x1="247" x2="247" y1="12.7451" y2="314.5732"/><line style="stroke: #000000; stroke-width: 2.0;" x1="443" x2="443" y1="12.7451" y2="314.5732"/><!--MD5=[4821399d6ffe3a1e4b73d4f05aa265ad]
@startuml
|AGI|
start
:Schema erstellen;
:Technische Metadaten erfassen;
|Fachamt|
:Datensatz dokumentieren;
|AGI|
:Datenabgabe freigeben;
end
@enduml

PlantUML version 1.2019.13(Tue Dec 10 17:18:29 UTC 2019)
(GPL source distribution)
Java Runtime: OpenJDK Runtime Environment
JVM: OpenJDK 64-Bit Server VM
Java Version: 1.8.0_232-b09
Operating System: Linux
Default Encoding: ANSI_X3.4-1968
Language: en
Country: US
--></g></svg>